PathFileType	4	(X/Y/Z)	C:/Users/beibeiliu/ov580/test_trc/User3\sequence.22_training_dense_left.trc
DataRate	CameraRate	NumFrames	NumMarkers	Units	OrigDataRate	OrigDataStartFrame	OrigNumFrames
120	120	11	19	mm	120	99	262
Frame#	Time	ThumbCMC			ThumbMCP			ThumbIP			ThumbTip			IndexMCP			IndexPIP			IndexTip			MiddleMCP			MiddlePIP			MiddleTip			RingMCP			RingPIP			RingTip			PinkyMCP			PinkyPIP			PinkyTip			BackHand1			BackHand2			BackHand3	
		X0	Y0	Z0	X1	Y1	Z1	X2	Y2	Z2	X3	Y3	Z3	X4	Y4	Z4	X5	Y5	Z5	X6	Y6	Z6	X7	Y7	Z7	X8	Y8	Z8	X9	Y9	Z9	X10	Y10	Z10	X11	Y11	Z11	X12	Y12	Z12	X13	Y13	Z13	X14	Y14	Z14	X15	Y15	Z15	X16	Y16	Z16	X17	Y17	Z17	X18	Y18	Z18	
98	0.816667	-239.342	20.0956	18.4295	-217.096	46.9149	12.3684	-193.86	65.46	-1.37387	-173.894	73.3129	-6.61512	-196.814	2.93027	-43.9914	-170.478	16.9149	-61.8257	-150.326	34.4953	-62.7496	-180.407	-11.4383	-44.2341	-158.514	4.29115	-59.8814	-134.482	35.0689	-47.5079	-170.554	-19.4081	-31.515	-147.756	-8.04081	-42.2413	-130.307	16.7105	-38.1734	-166.819	-26.93	-11.1842	-148.894	-15.8108	-26.9516	-128.064	1.00847	-33.2554	-207.319	-37.1431	3.30254	-223.355	-45.4463	30.9576	-239.845	-17.5504	5.66871	
99	0.825	-243.391	14.5266	13.1385	-225.188	42.4134	2.87677	-209.694	63.3208	-8.78588	-190.341	74.5341	-16.5947	-206.839	-2.21139	-51.4058	-187.744	8.71848	-69.8729	-166.204	30.6748	-74.3919	-192.823	-16.551	-49.5929	-170.781	2.17968	-69.996	-150.328	33.682	-62.2695	-179.368	-22.4468	-38.97	-161.737	-7.78425	-54.4258	-145.115	18.0441	-52.6446	-177.084	-27.5788	-15.4667	-159.681	-19.4444	-34.0618	-143.666	-1.80189	-43.1368	-212.739	-41.8233	2.7947	-226.306	-45.9809	26.8444	-245.376	-25.9615	4.62901	
100	0.833333	-254.804	8.65118	15.2159	-239.205	37.828	-4.14082	-226.122	56.4271	-19.2059	-209.44	70.2093	-31.7803	-224.489	-10.5713	-55.1594	-206.124	-1.47775	-76.735	-184.596	21.1461	-86.4943	-205.365	-24.8824	-58.7598	-189.214	-10.0577	-79.4059	-171.506	25.294	-79.1991	-195.504	-28.8808	-42.6942	-178.901	-16.057	-64.106	-160.02	11.9898	-67.2088	-182.662	-32.6106	-22.7475	-173.28	-23.5797	-43.3995	-158.093	-7.57391	-57.1547	-218.787	-44.6051	0.597145	-232.633	-47.3673	29.8885	-253.064	-28.2089	3.52347	
101	0.841667	-261.469	5.13342	9.10273	-246.571	28.0583	-6.43129	-235.434	46.3254	-27.0512	-222.334	60.0732	-42.1006	-237.88	-19.3647	-57.4977	-223.853	-11.2862	-81.3695	-201.684	9.99262	-95.5353	-221.075	-32.4971	-57.1389	-202.918	-18.6123	-85.2736	-186.677	10.7408	-89.2277	-207.48	-35.6187	-47.4306	-189.375	-23.3847	-71.5938	-176.567	1.70992	-78.643	-193.14	-36.4094	-27.2525	-187.117	-29.184	-48.4393	-171.883	-14.0708	-67.6051	-225.998	-48.4744	0.678555	-231.595	-50.0161	27.1115	-259.671	-35.2018	1.61428	
102	0.85	-268.575	1.46182	9.89171	-256.078	24.8233	-12.6598	-245.906	40.4822	-32.1268	-232.698	52.0942	-49.8937	-250.508	-28.0792	-60.1003	-237.986	-20.9071	-84.8368	-220.963	-4.5782	-98.9381	-231.053	-41.7835	-59.5122	-223.202	-29.4681	-89.0105	-204.256	0.197264	-98.8433	-215.932	-43.0472	-47.3035	-206.216	-32.795	-75.6669	-190.673	-9.23479	-86.9169	-204.886	-39.5913	-28.4759	-199.779	-34.8078	-54.877	-186.391	-24.4426	-74.9297	-230.311	-51.5958	0.709404	-238.635	-51.1964	27.3481	-262.985	-40.3572	5.56412	
103	0.858333	-269.476	-2.72046	12.2833	-260.833	18.0314	-11.3908	-255.232	35.9023	-35.3784	-243.235	44.5912	-56.215	-260.265	-36.1648	-55.7057	-249.637	-31.2643	-84.7013	-236.049	-13.2762	-103.614	-244.721	-48.6875	-58.421	-234.781	-39.8789	-90.0027	-221.855	-13.5499	-103.729	-230.807	-49.5258	-49.0602	-221.983	-43.6143	-77.0129	-206.636	-19.1469	-93.1216	-214.92	-47.3194	-32.6222	-212.405	-43.3041	-57.853	-203.506	-35.2855	-81.366	-237.129	-54.192	0.764602	-241.943	-53.9028	28.5016	-268.05	-42.3264	9.0093	
104	0.866667	-274.03	-3.9512	14.3444	-264.995	13.8617	-15.3988	-261.386	30.5582	-40.1985	-251.126	37.0915	-64.1566	-272.444	-42.1688	-54.3962	-261.757	-39.9039	-84.9068	-247.662	-24.0484	-105.719	-254.981	-56.3503	-56.6692	-250.434	-51.3931	-88.852	-234.154	-21.3477	-108	-240.319	-58.7843	-51.6064	-235.986	-54.9498	-76.8563	-222.819	-31.3666	-97.2097	-223.286	-52.751	-31.0269	-223.656	-53.3147	-57.9576	-215.488	-48.9749	-81.965	-243.286	-60.1981	1.64346	-243.952	-58.2301	34.376	-275.719	-41.2174	13.2839	
105	0.875	-276.593	-5.87397	10.2829	-269.067	12.5291	-16.2932	-264.791	22.3477	-44.3176	-258.019	30.5393	-62.3419	-285.185	-45.5703	-52.2903	-276.769	-49.0373	-79.9545	-265.438	-33.5917	-107.334	-271.654	-60.5306	-54.8752	-266.24	-60.0381	-86.4674	-250.335	-33.2683	-109.354	-252.33	-63.2163	-45.269	-250.328	-62.392	-79.6065	-235.82	-42.0619	-101.086	-231.454	-62.1902	-34.3522	-234.054	-64.6477	-58.3763	-233.361	-57.8605	-81.326	-254.181	-59.9445	3.29063	-251.443	-57.0472	33.905	-277.544	-44.0233	11.5233	
106	0.883333	-281.238	-1.66066	10.2338	-272.595	13.8626	-17.3871	-269.05	20.7015	-47.7543	-260.564	23.2062	-72.5203	-294.21	-51.0021	-51.6653	-290.369	-54.1349	-80.2594	-277.946	-42.5073	-103.9	-281.136	-67.8168	-54.5962	-277.737	-65.6209	-84.349	-257.875	-42.247	-107.963	-263.692	-68.9994	-43.9578	-260.104	-72.2608	-74.455	-247.494	-56.3397	-97.5779	-245.716	-68.3943	-35.7249	-243.924	-74.4244	-58.4937	-241.906	-68.3686	-86.1654	-258.376	-63.6797	3.18684	-254.735	-56.9266	35.613	-286.153	-40.6319	16.6987	
107	0.891667	-279.287	-2.71986	10.6509	-272.978	7.91565	-24.2926	-270.014	15.5742	-48.9017	-264.682	18.2738	-74.5643	-303.954	-50.5651	-45.2533	-300.194	-57.7869	-75.9037	-286.391	-48.6565	-100.799	-290.687	-70.2943	-51.5162	-288.252	-68.6063	-83.6314	-269.686	-50.148	-103.906	-273.096	-74.7252	-43.395	-270.912	-80.0241	-71.4159	-261.32	-62.6124	-97.2708	-254.898	-74.5428	-32.3766	-257.388	-78.2673	-55.0802	-256.176	-74.1221	-81.3814	-265.119	-66.7289	6.6382	-259.304	-57.0577	36.5245	-291.2	-41.6305	18.5141	
108	0.9	-279.326	-2.22722	10.0235	-271.675	4.09085	-23.7449	-270.815	13.5007	-51.4398	-264.734	14.4248	-73.3521	-310.91	-50.3078	-42.7366	-309.6	-57.942	-73.2016	-297.652	-47.3453	-101.009	-302.464	-69.6744	-48.3483	-297.755	-69.8575	-81.6871	-278.098	-50.0668	-103.61	-283.903	-78.5597	-43.1767	-282.7	-82.7267	-69.0546	-269.883	-67.2349	-95.0966	-263.524	-78.5557	-31.6867	-267.496	-83.645	-57.0355	-268.975	-79.3535	-78.1653	-274.25	-66.0942	9.22824	-265.808	-58.5948	36.3415	-291.871	-39.3639	18.417	
